<?xml version="1.0" encoding="UTF-8"?>
<svg width="700pt" height="700pt" version="1.1" viewBox="0 0 700 700" xmlns="http://www.w3.org/2000/svg" xmlns:xlink="http://www.w3.org/1999/xlink"> 
 <g>
  <path d="m84 476 122.64-39.762 14-222.32-108.08 39.199z"/>
  <path d="m230.16 436.8 108.08 39.199v-223.44l-93.52-38.637z"/>
  <path d="m443.52 304.08-35.84-70.559-45.359 19.039v223.44l107.52-39.199-7.8398-115.92c-7.8398-3.3594-14.559-8.957-18.48-16.801z"/>
  <path d="m587.44 253.12-48.16-17.359c-15.68 30.238-33.602 65.52-34.719 67.762-3.9219 7.8398-10.641 14-18.48 16.801l7.2812 115.92 122.64 39.754z"/>
  <path d="m537.6 123.2c-17.922-35.281-60.48-49.281-95.199-31.359-35.281 17.922-48.719 61.602-31.359 95.199 17.359 33.602 54.32 105.84 54.32 105.84 3.9219 7.8398 15.121 7.8398 18.48 0 0 0 44.238-85.68 54.32-105.84 9.5156-20.16 9.5156-43.117-0.5625-63.84zm-63.281 67.199c-18.48 0-33.602-15.121-33.602-33.602s15.121-33.602 33.602-33.602c18.48 0 33.602 15.121 33.602 33.602 0 18.484-15.121 33.602-33.602 33.602z"/>
  <use x="70" y="644" xlink:href="#h"/>
  <use x="90.550781" y="644" xlink:href="#c"/>
  <use x="104.359375" y="644" xlink:href="#a"/>
  <use x="123.347656" y="644" xlink:href="#l"/>
  <use x="142.242188" y="644" xlink:href="#b"/>
  <use x="155.628906" y="644" xlink:href="#a"/>
  <use x="174.617188" y="644" xlink:href="#e"/>
  <use x="204.410156" y="644" xlink:href="#k"/>
  <use x="224.453125" y="644" xlink:href="#j"/>
  <use x="252.453125" y="644" xlink:href="#i"/>
  <use x="274.121094" y="644" xlink:href="#e"/>
  <use x="294.164062" y="644" xlink:href="#c"/>
  <use x="307.972656" y="644" xlink:href="#u"/>
  <use x="317.570312" y="644" xlink:href="#a"/>
  <use x="336.5625" y="644" xlink:href="#g"/>
  <use x="366.242188" y="644" xlink:href="#h"/>
  <use x="386.789062" y="644" xlink:href="#d"/>
  <use x="406.027344" y="644" xlink:href="#t"/>
  <use x="426.070312" y="644" xlink:href="#f"/>
  <use x="446.003906" y="644" xlink:href="#a"/>
  <use x="464.992187" y="644" xlink:href="#b"/>
  <use x="70" y="672" xlink:href="#s"/>
  <use x="82.183594" y="672" xlink:href="#c"/>
  <use x="95.992188" y="672" xlink:href="#d"/>
  <use x="115.226562" y="672" xlink:href="#r"/>
  <use x="154.152344" y="672" xlink:href="#b"/>
  <use x="167.535156" y="672" xlink:href="#q"/>
  <use x="187.46875" y="672" xlink:href="#a"/>
  <use x="216.207031" y="672" xlink:href="#p"/>
  <use x="239.640625" y="672" xlink:href="#d"/>
  <use x="258.878906" y="672" xlink:href="#f"/>
  <use x="278.8125" y="672" xlink:href="#g"/>
  <use x="308.492188" y="672" xlink:href="#o"/>
  <use x="329.015625" y="672" xlink:href="#c"/>
  <use x="342.820312" y="672" xlink:href="#d"/>
  <use x="362.058594" y="672" xlink:href="#n"/>
  <use x="371.65625" y="672" xlink:href="#a"/>
  <use x="390.648438" y="672" xlink:href="#m"/>
  <use x="407.242188" y="672" xlink:href="#b"/>
 </g>
</svg>
