<?xml version="1.0" encoding="UTF-8"?>
<svg width="40pt" height="40pt"  fill="#ffffff" version="1.1" viewBox="0 0 700 700" xmlns="http://www.w3.org/2000/svg" xmlns:xlink="http://www.w3.org/1999/xlink">
 <g>
  <path d="m131.6 112v56h436.8v-56zm0 140v56h436.8v-56zm0 140v56h436.8v-56z"/>
  <use x="70" y="644" xlink:href="#s"/>
  <use x="90.550781" y="644" xlink:href="#c"/>
  <use x="104.359375" y="644" xlink:href="#a"/>
  <use x="123.347656" y="644" xlink:href="#l"/>
  <use x="142.242188" y="644" xlink:href="#d"/>
  <use x="155.628906" y="644" xlink:href="#a"/>
  <use x="174.617188" y="644" xlink:href="#k"/>
  <use x="204.410156" y="644" xlink:href="#j"/>
  <use x="224.453125" y="644" xlink:href="#i"/>
  <use x="252.453125" y="644" xlink:href="#e"/>
  <use x="275.882812" y="644" xlink:href="#h"/>
  <use x="295.820312" y="644" xlink:href="#g"/>
  <use x="324.992188" y="644" xlink:href="#a"/>
  <use x="343.984375" y="644" xlink:href="#c"/>
  <use x="357.792969" y="644" xlink:href="#b"/>
  <use x="386.777344" y="644" xlink:href="#r"/>
  <use x="409.515625" y="644" xlink:href="#f"/>
  <use x="429.445312" y="644" xlink:href="#b"/>
  <use x="70" y="672" xlink:href="#q"/>
  <use x="82.183594" y="672" xlink:href="#c"/>
  <use x="95.992188" y="672" xlink:href="#b"/>
  <use x="115.226562" y="672" xlink:href="#g"/>
  <use x="154.152344" y="672" xlink:href="#d"/>
  <use x="167.535156" y="672" xlink:href="#p"/>
  <use x="187.46875" y="672" xlink:href="#a"/>
  <use x="216.207031" y="672" xlink:href="#e"/>
  <use x="239.640625" y="672" xlink:href="#b"/>
  <use x="258.878906" y="672" xlink:href="#h"/>
  <use x="278.8125" y="672" xlink:href="#f"/>
  <use x="308.492188" y="672" xlink:href="#o"/>
  <use x="329.015625" y="672" xlink:href="#c"/>
  <use x="342.820312" y="672" xlink:href="#b"/>
  <use x="362.058594" y="672" xlink:href="#n"/>
  <use x="371.65625" y="672" xlink:href="#a"/>
  <use x="390.648438" y="672" xlink:href="#m"/>
  <use x="407.242188" y="672" xlink:href="#d"/>
 </g>
</svg>
