<?xml version="1.0" encoding="UTF-8"?>
<svg width="30pt" height="30pt" version="1.1" fill="#ffffff" viewBox="0 0 700 700" xmlns="http://www.w3.org/2000/svg" xmlns:xlink="http://www.w3.org/1999/xlink">
 <g>
  <path d="m567.84 451.92-0.55859-0.55859-119.28-119.29c20.719-29.68 31.359-64.961 
  31.359-100.8 0-98-80.078-178.08-178.08-178.08s-178.08 80.082-178.08 178.08 80.078 
  178.08 178.08 178.08c35.84 0 71.121-11.199 100.8-31.359l119.28 119.28c12.32 12.879 
  33.039 13.441 45.922 0.55859 12.32-12.32 12.879-33.039 0.55859-45.918zm-266.56-90.723c-71.68 
  0-129.92-58.238-129.92-129.92 0-71.68 58.238-129.92 129.92-129.92 71.68 0 129.92 58.238 129.92 
  129.92-0.003906 71.684-58.242 129.92-129.92 129.92z"/>
  <use x="70" y="644" xlink:href="#r"/>
  <use x="90.550781" y="644" xlink:href="#d"/>
  <use x="104.359375" y="644" xlink:href="#a"/>
  <use x="123.347656" y="644" xlink:href="#f"/>
  <use x="142.242188" y="644" xlink:href="#c"/>
  <use x="155.628906" y="644" xlink:href="#a"/>
  <use x="174.617188" y="644" xlink:href="#j"/>
  <use x="204.410156" y="644" xlink:href="#i"/>
  <use x="224.453125" y="644" xlink:href="#h"/>
  <use x="252.453125" y="644" xlink:href="#e"/>
  <use x="275.882812" y="644" xlink:href="#b"/>
  <use x="295.121094" y="644" xlink:href="#f"/>
  <use x="314.015625" y="644" xlink:href="#g"/>
  <use x="70" y="672" xlink:href="#q"/>
  <use x="82.183594" y="672" xlink:href="#d"/>
  <use x="95.992188" y="672" xlink:href="#b"/>
  <use x="115.226562" y="672" xlink:href="#p"/>
  <use x="154.152344" y="672" xlink:href="#c"/>
  <use x="167.535156" y="672" xlink:href="#g"/>
  <use x="187.46875" y="672" xlink:href="#a"/>
  <use x="216.207031" y="672" xlink:href="#e"/>
  <use x="239.640625" y="672" xlink:href="#b"/>
  <use x="258.878906" y="672" xlink:href="#o"/>
  <use x="278.8125" y="672" xlink:href="#n"/>
  <use x="308.492188" y="672" xlink:href="#m"/>
  <use x="329.015625" y="672" xlink:href="#d"/>
  <use x="342.820312" y="672" xlink:href="#b"/>
  <use x="362.058594" y="672" xlink:href="#l"/>
  <use x="371.65625" y="672" xlink:href="#a"/>
  <use x="390.648438" y="672" xlink:href="#k"/>
  <use x="407.242188" y="672" xlink:href="#c"/>
 </g>
</svg>
